# xmcd
#
# Track frame offsets: 
#        150
#        16799
#        31130
#        44229
#        58020
#        65431
#        83164
#        97296
#        119928
#        133751
#
# Disc length: 2065 seconds
#
# Revision: 0
# Processed by: cddbd v1.5.2PL0 Copyright (c) Steve Scherf et al.
# Submitted via: ExactAudioCopy v1.2
#
DISCID=93080f0a
DTITLE=Mike Baytop and Jay Summerour - Mike Baytop and Jay Summerour
DYEAR=2017
DGENRE=Blues
TTITLE0=Rock Island Line
TTITLE1=Don’t Let Go
TTITLE2=Good Place to Go
TTITLE3=Jambalaya
TTITLE4=Stop That Thing
TTITLE5=Maggie Country
TTITLE6=1 to 99
TTITLE7=Walkin’ Blues
TTITLE8=Black Bottom
TTITLE9=Standing on the Landing
EXTD=
EXTT0=
EXTT1=
EXTT2=
EXTT3=
EXTT4=
EXTT5=
EXTT6=
EXTT7=
EXTT8=
EXTT9=
PLAYORDER=
